<svg width="169" height="169" viewBox="0 0 169 169" fill="none" xmlns="http://www.w3.org/2000/svg">
<rect width="169" height="169" rx="24" fill="white"/>
<path d="M84.4797 61.1301C86.1135 58.0751 87.8677 55.5272 90.5189 53.2805C95.4058 49.1415 101.535 47.5054 107.82 48.1281C114.331 48.773 120.135 52.1582 124.263 57.2776C128.755 62.8482 130.578 70.014 129.841 77.1319C128.254 92.4539 116.577 103.609 105.465 112.807C98.8256 118.552 91.6342 123.769 84.6014 129C83.0986 128.071 81.6592 126.99 80.2231 125.954C69.6218 118.307 54.662 106.776 46.8964 96.1289C43.2332 91.1069 40.3684 85.2088 39.3768 79.002C38.2338 71.8484 39.6778 64.2644 43.892 58.3408C47.9084 52.6968 53.8087 49.3352 60.5087 48.2438C63.609 47.927 66.8225 48.042 69.8441 48.853C76.5732 50.6606 81.0969 55.1392 84.4797 61.1301Z" fill="#FD325D"/>
</svg>
